P3
# Created by Paint Shop Pro 7
49 52
255
255 255 255 255 255 255 255 255 255 255 255 255 255 255 255 255 255 255 
255 255 255 255 255 255 255 255 255 255 255 255 255 255 255 255 255 255 
255 255 255 255 255 255 255 255 255 255 255 255 255 255 255 255 255 255 
255 255 255 255 255 255 255 255 255 255 255 255 255 255 255 255 255 255 
255 255 255 255 255 255 255 255 255 255 255 255 255 255 255 255 255 255 
255 255 255 255 255 255 255 255 255 255 255 255 255 255 255 255 255 255 
255 255 255 255 255 255 255 255 255 255 255 255 255 255 255 255 255 255 
255 255 255 255 255 255 255 255 255 255 255 255 255 255 255 255 255 255 
255 255 255 255 255 255 255 255 255 255 255 255 255 255 255 255 255 255 
255 255 255 255 255 255 255 255 255 255 255 255 255 255 255 255 255 255 
255 255 255 255 255 255 255 255 255 255 255 255 255 255 255 255 255 255 
255 255 255 255 255 255 255 255 255 255 255 255 255 255 255 255 255 255 
255 255 255 255 255 255 255 255 255 255 255 255 255 255 255 255 255 255 
255 255 255 255 255 255 255 255 255 255 255 255 255 255 255 255 255 255 
255 255 255 255 255 255 255 255 255 255 255 255 255 255 255 255 255 255 
255 255 255 255 255 255 255 255 255 255 255 255 255 255 255 255 255 255 
255 255 255 255 255 255 255 255 255 255 255 255 255 255 255 255 255 255 
255 255 255 255 255 255 255 255 255 255 255 255 255 255 255 255 255 255 
255 255 255 255 255 255 255 255 255 255 255 255 255 255 255 255 255 255 
255 255 255 255 255 255 255 255 255 255 255 255 255 255 255 255 255 255 
255 255 255 255 255 255 255 255 255 255 255 255 255 255 255 255 255 255 
255 255 255 255 255 255 255 255 255 255 255 255 255 255 255 255 255 255 
255 255 255 255 255 255 255 255 255 255 255 255 255 255 255 255 255 255 
255 255 255 255 255 255 255 255 255 255 255 255 255 255 255 255 255 255 
255 255 255 255 255 255 255 255 255 255 255 255 255 255 255 255 255 255 
255 255 255 255 255 255 255 255 255 255 255 255 255 255 255 255 255 255 
255 255 255 255 255 255 255 255 255 255 255 255 255 255 255 255 255 255 
255 255 255 255 255 255 255 255 255 255 255 255 255 255 255 255 255 255 
255 255 255 255 255 255 255 255 255 255 255 255 255 255 255 255 255 255 
255 255 255 255 255 255 255 255 255 255 255 255 255 255 255 255 255 255 
255 255 255 255 255 255 255 255 255 255 255 255 255 255 255 255 255 255 
255 255 255 255 255 255 255 255 255 255 255 255 255 255 255 255 255 255 
255 255 255 255 255 255 255 255 255 255 255 255 255 255 255 255 255 255 
255 255 255 255 255 255 255 255 255 255 255 255 255 255 255 255 255 255 
255 255 255 255 255 255 255 255 255 255 255 255 255 255 255 255 255 255 
255 255 255 255 255 255 255 255 255 248 248 248 204 255 255 204 236 255 
204 236 255 204 255 255 204 236 255 241 241 241 255 255 255 255 255 255 
255 255 255 255 255 255 255 255 255 255 255 255 255 255 255 255 255 255 
255 255 255 255 255 255 255 255 255 255 255 255 255 255 255 255 255 255 
255 255 255 255 255 255 255 255 255 255 255 255 255 255 255 255 255 255 
255 255 255 255 255 255 255 255 255 255 255 255 255 255 255 255 255 255 
255 255 255 255 255 255 255 255 255 241 241 241 241 241 241 255 251 240 
248 248 248 248 248 248 248 248 248 241 241 241 255 251 240 248 248 248 
255 251 240 248 248 248 204 236 255 102 204 255 51 204 255 0 204 255 0 204 255 
0 204 255 0 204 204 0 204 255 51 204 255 102 204 204 204 236 255 248 248 248 
255 251 240 255 251 240 248 248 248 248 248 248 248 248 248 248 248 248 
255 255 255 255 255 255 255 255 255 255 255 255 255 255 255 255 251 240 
248 248 248 255 255 255 255 255 255 255 255 255 255 255 255 255 255 255 
255 255 255 255 255 255 255 255 255 255 255 255 255 255 255 255 255 255 
255 255 255 255 255 255 248 248 248 241 241 241 255 251 240 248 248 248 
255 255 255 248 248 248 255 251 240 248 248 248 255 255 255 241 241 241 
51 204 255 0 204 204 0 204 255 0 204 255 0 204 255 0 204 204 0 204 204 
51 153 204 0 204 255 0 204 255 0 204 255 0 204 204 51 204 204 153 255 255 
248 248 248 255 251 240 241 241 241 248 248 248 248 248 248 255 251 240 
255 251 240 255 255 255 248 248 248 248 248 248 255 251 240 204 255 255 
255 255 255 255 255 255 255 255 255 255 255 255 255 255 255 255 255 255 
255 255 255 255 255 255 255 255 255 255 255 255 255 255 255 255 255 255 
255 255 255 255 255 255 248 248 248 255 255 255 248 248 248 255 255 255 
248 248 248 255 251 240 255 255 255 166 202 240 0 204 255 0 153 204 0 102 204 
0 153 204 0 204 255 0 153 153 51 102 153 51 51 102 0 102 102 0 204 204 
0 204 204 0 204 255 0 204 255 0 204 255 0 204 204 102 204 255 255 255 255 
255 255 204 255 251 240 255 251 240 255 251 240 255 251 240 255 251 240 
248 248 248 248 248 248 248 248 248 255 251 240 255 255 255 255 255 255 
255 255 255 255 255 255 255 255 255 255 255 255 255 255 255 255 255 255 
255 255 255 255 255 255 255 255 255 255 255 255 255 255 255 255 255 255 
255 255 255 255 255 255 255 255 255 255 251 240 255 251 240 255 255 255 
153 255 255 51 204 255 51 204 255 0 153 204 0 102 153 51 51 102 160 160 164 
255 204 255 241 241 241 204 255 255 234 234 234 160 160 164 51 51 102 51 102 153 
0 204 255 0 204 255 0 204 255 51 153 255 204 236 255 241 241 241 255 255 255 
255 255 255 241 241 241 204 236 255 255 251 240 255 255 204 255 251 240 
255 255 255 241 241 241 255 255 255 255 255 255 255 255 255 255 255 255 
255 255 255 255 255 255 255 255 255 255 255 255 255 255 255 255 255 255 
255 255 255 255 255 255 255 255 255 255 251 240 255 255 255 255 255 255 
255 255 255 255 251 240 248 248 248 204 255 255 51 204 204 0 204 255 51 153 153 
0 128 128 51 153 153 204 236 255 255 251 240 255 255 204 255 255 204 255 255 204 
255 251 240 255 251 240 241 241 241 102 102 153 51 153 204 0 204 204 0 204 255 
51 204 255 51 204 255 51 255 255 51 255 255 51 204 255 51 204 255 0 204 255 
102 204 255 241 241 241 248 248 248 248 248 248 248 248 248 255 255 255 
255 255 255 255 255 255 255 255 255 255 255 255 255 255 255 255 255 255 
255 255 255 255 255 255 255 255 255 255 255 255 255 255 255 255 255 255 
255 251 240 255 255 255 255 255 255 255 255 255 255 255 255 241 241 241 
102 204 204 0 204 204 0 153 204 0 51 51 102 153 153 241 241 241 241 241 241 
255 251 240 255 255 204 255 255 204 255 251 240 255 251 240 204 255 204 
255 255 204 255 251 240 119 119 119 0 128 128 0 153 204 0 204 255 0 204 255 
0 204 255 0 204 255 0 128 128 0 102 102 0 153 204 0 204 255 102 204 255 
234 234 234 241 241 241 255 255 204 255 255 255 255 255 255 255 255 255 
255 255 255 255 255 255 255 255 255 255 255 255 255 255 255 255 255 255 
255 255 255 255 255 255 255 255 255 255 255 255 255 255 255 255 255 255 
255 255 255 255 251 240 255 255 255 204 255 255 51 204 204 0 204 255 51 204 255 
102 102 102 248 248 248 241 241 241 255 251 240 255 251 240 255 251 240 
255 251 240 255 251 240 255 251 240 231 231 214 255 255 204 255 255 204 
255 255 255 57 57 57 51 102 153 0 204 204 0 204 255 0 204 255 0 204 255 
51 102 102 66 66 66 51 204 204 0 204 255 0 204 255 51 204 204 153 255 255 
241 241 241 255 255 255 255 255 255 255 255 255 255 255 255 255 255 255 
255 255 255 255 255 255 255 255 255 255 255 255 255 255 255 255 255 255 
255 255 255 255 255 255 248 248 248 255 255 255 248 248 248 255 251 240 
255 255 255 153 204 255 0 204 255 0 204 255 0 51 102 204 204 204 255 255 255 
255 251 240 241 241 241 255 251 240 255 251 240 255 251 240 255 251 240 
255 251 240 241 241 241 255 251 240 255 255 204 255 255 204 234 234 234 
0 51 102 51 204 204 0 204 255 51 204 255 51 153 204 51 51 0 102 51 51 66 66 66 
51 153 153 51 204 204 0 204 255 0 153 255 102 204 204 248 248 248 255 255 255 
255 255 255 255 255 255 255 255 255 255 255 255 255 255 255 255 255 255 
255 255 255 255 255 255 255 255 255 255 255 255 255 255 255 255 255 255 
255 255 255 248 248 248 255 251 240 255 255 255 102 204 255 0 204 255 0 204 255 
51 51 102 248 248 248 255 251 240 255 251 240 255 251 240 255 255 204 255 255 204 
255 255 204 255 251 240 255 251 240 248 248 248 102 102 102 239 214 198 
255 251 240 255 255 255 102 153 204 0 204 204 0 204 204 51 102 153 153 102 51 
255 102 51 255 102 51 255 102 51 204 102 51 153 102 51 51 153 153 0 204 255 
0 204 204 153 204 204 248 248 248 255 255 255 255 255 255 255 255 255 255 255 255 
255 255 255 255 255 255 255 255 255 255 255 255 255 255 255 255 255 255 
255 255 255 248 248 248 255 255 255 255 251 240 255 255 255 248 248 248 
51 204 255 0 204 255 0 204 255 51 153 153 241 241 241 255 255 204 255 255 204 
255 251 240 255 251 240 255 255 204 255 255 204 102 102 102 204 204 204 
231 231 214 102 102 153 57 57 57 255 251 240 255 251 240 204 236 255 0 128 128 
51 153 102 255 124 128 204 102 51 204 51 51 255 102 51 204 51 0 204 102 51 
255 102 51 204 102 51 0 204 204 51 204 255 0 204 255 204 236 255 255 251 240 
255 251 240 248 248 248 255 255 255 255 255 255 248 248 248 255 255 255 
255 255 255 255 255 255 255 255 255 255 255 255 248 248 248 255 255 255 
255 251 240 255 255 255 248 248 248 51 204 204 0 204 255 0 204 255 0 102 153 
248 248 248 255 255 204 255 255 204 255 251 240 255 251 240 255 251 240 
231 231 214 150 150 150 22 22 22 234 234 234 51 51 102 51 51 51 255 251 240 
255 251 240 241 241 241 57 57 57 255 204 153 255 102 51 102 51 51 204 102 102 
204 51 51 153 102 51 153 51 51 255 102 51 255 102 51 85 85 85 0 204 255 
0 204 255 153 204 255 255 251 240 255 251 240 255 255 255 255 255 255 255 255 255 
255 255 255 248 248 248 255 255 255 255 255 255 255 255 255 255 255 255 
255 255 255 248 248 248 255 255 255 255 255 255 248 248 248 51 204 204 
0 204 255 0 204 204 0 102 153 248 248 248 255 255 204 255 255 204 255 251 240 
255 251 240 255 251 240 215 215 215 95 95 95 51 0 51 248 248 248 128 128 128 
150 150 150 255 251 240 255 251 240 255 204 204 204 51 51 255 102 51 204 102 0 
204 153 0 204 102 0 153 51 0 255 153 51 255 102 51 255 102 51 255 102 51 
204 102 51 0 204 204 0 204 255 153 204 255 255 251 240 255 251 240 255 255 255 
255 255 255 255 255 255 255 251 240 248 248 248 255 255 255 255 255 255 
255 255 255 255 255 255 255 255 255 255 255 255 255 255 255 248 248 248 
248 248 248 51 204 204 0 204 255 0 204 255 0 102 153 227 227 227 255 255 204 
255 251 240 255 251 240 255 251 240 255 251 240 255 251 240 178 178 178 
160 160 164 255 255 204 160 160 164 255 255 255 255 251 240 255 255 204 
255 204 204 204 102 51 255 102 51 153 102 51 153 102 51 153 51 51 153 102 51 
204 51 51 204 102 0 153 102 0 255 102 51 255 102 0 0 153 204 0 204 255 
153 204 255 248 248 248 255 255 255 255 255 255 248 248 248 255 255 255 
255 251 240 248 248 248 255 255 255 255 255 255 255 255 255 255 255 255 
248 248 248 255 255 255 248 248 248 248 248 248 248 248 248 102 204 255 
0 204 255 0 204 255 0 102 153 192 192 192 255 251 240 255 251 240 255 251 240 
255 251 240 255 251 240 255 255 204 255 255 204 255 255 255 227 227 227 
153 102 204 102 102 153 215 215 215 255 251 240 255 251 240 204 153 102 
204 153 51 153 102 51 204 204 51 204 204 51 204 153 51 153 153 0 255 255 51 
153 102 0 255 102 51 255 51 51 0 153 255 51 204 204 204 255 255 255 255 255 
255 255 255 255 255 255 248 248 248 248 248 248 255 251 240 255 255 255 
255 255 255 255 255 255 255 255 255 255 255 255 255 255 255 255 255 255 
248 248 248 255 251 240 255 255 255 153 204 255 0 204 204 0 204 255 0 153 204 
102 153 153 241 241 241 255 251 240 255 251 240 255 251 240 255 255 204 
255 255 204 255 255 204 248 248 248 102 102 153 153 102 255 153 102 255 
51 102 153 255 251 240 255 255 204 239 214 198 153 102 51 255 102 51 204 204 51 
153 102 0 204 153 51 204 204 51 153 153 0 204 102 51 255 102 102 102 51 51 
0 204 255 51 204 204 248 248 248 248 248 248 248 248 248 255 255 255 248 248 248 
248 248 248 255 251 240 255 255 255 255 255 255 255 255 255 255 255 255 
255 255 255 255 251 240 255 255 255 248 248 248 255 251 240 255 255 255 
204 255 255 0 204 204 0 204 255 0 204 255 102 153 153 204 236 255 255 251 240 
255 255 204 255 255 204 255 251 240 255 255 204 255 251 240 150 150 150 
102 102 204 153 102 255 153 102 255 102 102 153 215 215 215 255 251 240 
255 255 204 102 51 51 204 102 102 204 102 51 204 51 51 153 51 51 153 51 0 
204 153 51 204 102 102 102 51 102 51 204 204 0 204 204 153 255 255 255 255 255 
255 251 240 255 251 240 255 255 255 248 248 248 241 241 241 255 251 240 
255 255 255 255 255 255 255 255 255 255 255 255 255 255 255 255 251 240 
255 255 255 248 248 248 255 251 240 248 248 248 204 255 255 51 204 204 
0 204 255 0 204 255 51 102 102 166 202 240 255 251 240 255 255 204 255 251 240 
248 248 248 255 251 240 215 215 215 0 0 102 0 51 102 0 0 204 102 102 255 
102 102 153 192 192 192 255 251 240 255 251 240 134 134 134 51 153 204 
102 51 0 153 51 102 204 102 102 204 102 51 102 51 51 85 85 85 51 204 204 
0 204 255 51 204 204 248 248 248 241 241 241 255 251 240 255 251 240 255 255 255 
248 248 248 241 241 241 255 251 240 248 248 248 255 255 255 255 255 255 
255 255 255 255 255 255 255 251 240 255 255 255 248 248 248 255 251 240 
248 248 248 204 255 255 51 204 204 0 204 255 0 204 255 0 51 102 166 202 240 
255 251 240 255 255 204 255 251 240 255 255 255 255 255 255 178 178 178 
0 0 128 0 51 102 0 51 153 102 102 204 153 51 153 204 204 204 255 255 255 
255 251 240 153 204 204 0 102 204 192 220 192 234 234 234 221 221 221 204 236 255 
51 153 153 0 153 204 0 204 255 51 204 255 248 248 248 255 255 255 248 248 248 
255 251 240 255 251 240 255 255 255 248 248 248 241 241 241 255 251 240 
248 248 248 255 255 255 255 255 255 255 255 255 255 255 255 255 255 255 
248 248 248 255 255 255 255 251 240 248 248 248 204 255 255 51 204 204 
0 204 255 0 204 255 0 102 153 203 203 203 255 255 204 255 255 204 241 241 241 
231 231 214 255 255 204 160 160 164 0 51 153 0 51 153 0 51 153 102 102 204 
102 51 204 255 204 255 255 255 204 255 255 204 255 251 240 102 102 153 
241 241 241 204 236 255 204 236 255 241 241 241 51 51 102 0 102 153 0 204 204 
204 236 255 248 248 248 255 255 255 255 255 255 255 255 255 255 255 255 
255 255 255 255 255 255 255 255 255 255 255 255 255 255 255 255 255 255 
255 255 255 255 255 255 255 255 255 255 255 255 255 255 255 255 255 255 
255 251 240 248 248 248 204 255 255 51 204 204 0 204 255 0 204 255 0 102 102 
227 227 227 255 255 204 255 251 240 241 241 241 255 251 240 255 255 204 
178 178 178 0 0 128 0 51 153 0 51 153 102 102 204 153 102 204 255 255 255 
255 251 240 192 220 192 134 134 134 241 241 241 234 234 234 204 236 255 
204 236 255 241 241 241 51 51 102 51 153 204 102 204 255 255 255 255 255 251 240 
255 255 255 255 255 255 255 255 255 255 255 255 255 255 255 255 255 255 
255 255 255 255 255 255 255 255 255 255 255 255 255 255 255 255 255 255 
255 255 255 248 248 248 255 255 255 255 255 255 255 251 240 248 248 248 
153 255 255 51 204 255 0 204 255 0 204 255 51 102 153 241 241 241 255 255 204 
255 251 240 150 150 150 255 251 240 255 251 240 203 203 203 0 51 102 0 51 153 
51 51 153 153 102 204 153 102 204 204 204 204 160 160 164 192 192 192 241 241 241 
234 234 234 204 236 255 204 236 255 234 234 234 234 234 234 51 102 153 
51 204 255 204 236 255 255 251 240 255 251 240 255 255 255 255 255 255 
255 255 255 255 255 255 255 255 255 255 255 255 255 255 255 255 255 255 
255 255 255 255 255 255 255 255 255 255 255 255 255 255 255 248 248 248 
255 255 255 255 255 255 255 251 240 248 248 248 102 204 255 0 204 255 0 204 255 
0 204 255 102 153 102 255 251 240 255 255 204 255 251 240 215 215 215 77 77 77 
203 203 203 248 248 248 51 102 102 51 51 204 102 102 204 102 51 153 153 153 204 
227 227 227 241 241 241 204 236 255 204 236 255 234 234 234 204 236 255 
234 234 234 241 241 241 153 153 204 0 153 153 51 204 255 248 248 248 255 251 240 
248 248 248 255 255 255 255 255 255 255 255 255 255 255 255 255 255 255 
255 255 255 255 255 255 255 255 255 255 255 255 255 255 255 255 255 255 
255 255 255 255 255 255 248 248 248 255 255 255 255 255 255 255 255 255 
241 241 241 51 204 204 0 204 255 0 204 255 0 204 204 134 134 134 255 251 240 
255 251 240 255 251 240 255 255 255 192 192 192 95 95 95 160 160 164 153 153 204 
51 51 153 102 102 153 227 227 227 241 241 241 234 234 234 204 236 255 204 236 255 
204 236 255 234 234 234 204 236 255 227 227 227 248 248 248 102 153 153 
0 204 204 0 204 255 204 236 255 255 251 240 248 248 248 255 255 255 255 255 255 
255 255 255 255 255 255 255 255 255 255 255 255 255 255 255 255 255 255 
255 255 255 255 255 255 255 255 255 255 255 255 255 255 255 248 248 248 
255 255 255 255 255 255 248 248 248 204 255 255 51 204 204 0 204 255 0 204 255 
0 102 102 192 220 192 255 251 240 255 251 240 255 251 240 255 251 240 255 251 240 
173 169 144 221 221 221 241 241 241 241 241 241 248 248 248 227 227 227 
234 234 234 227 227 227 204 236 255 204 236 255 234 234 234 234 234 234 
234 234 234 204 236 255 241 241 241 102 153 153 51 204 204 0 204 255 102 255 255 
255 255 255 248 248 248 255 255 255 255 255 255 255 255 255 255 255 255 
255 255 255 255 255 255 255 255 255 255 255 255 255 255 255 255 255 255 
255 255 255 255 255 255 255 255 255 255 251 240 255 255 255 255 255 255 
248 248 248 102 204 255 0 204 204 0 204 255 51 153 204 0 51 102 255 255 255 
231 231 214 255 251 240 255 251 240 255 255 204 255 251 240 255 251 240 
178 178 178 234 234 234 234 234 234 234 234 234 234 234 234 227 227 227 
241 241 241 234 234 234 234 234 234 234 234 234 234 234 234 234 234 234 
204 236 255 204 236 255 166 202 240 51 153 153 0 204 255 0 204 204 241 241 241 
255 255 255 255 255 255 255 255 255 255 255 255 255 255 255 255 255 255 
255 255 255 255 255 255 255 255 255 255 255 255 255 255 255 255 255 255 
255 255 255 255 255 255 255 251 240 255 255 255 255 255 255 204 255 255 
51 204 204 0 204 255 0 204 255 0 153 153 153 153 153 255 255 204 231 231 214 
255 251 240 255 251 240 255 255 204 255 255 204 255 251 240 192 192 192 
178 178 178 234 234 234 241 241 241 241 241 241 204 236 255 234 234 234 
234 234 234 234 234 234 204 236 255 204 236 255 227 227 227 204 236 255 
204 236 255 241 241 241 51 102 102 0 204 204 0 204 255 102 204 204 248 248 248 
255 255 255 255 255 255 255 255 255 255 255 255 255 255 255 255 255 255 
255 255 255 255 255 255 255 255 255 255 255 255 255 255 255 255 255 255 
255 255 255 255 251 240 255 255 255 248 248 248 102 204 255 0 204 204 0 204 255 
0 204 255 51 102 153 234 234 234 239 214 198 255 251 240 255 251 240 255 251 240 
255 255 204 255 255 204 255 251 240 255 251 240 178 178 178 134 134 134 
150 150 150 192 192 192 241 241 241 204 236 255 234 234 234 234 234 234 
204 236 255 204 236 255 204 255 204 234 234 234 204 236 255 248 248 248 
153 153 153 0 102 153 0 204 255 0 204 204 166 202 240 255 255 255 248 248 248 
255 255 255 255 255 255 255 255 255 248 248 248 255 255 255 255 255 255 
255 255 255 255 255 255 255 255 255 255 255 255 255 255 255 248 248 248 
255 255 255 153 255 255 0 204 204 0 204 255 0 204 255 0 204 204 102 153 204 
255 255 204 239 214 198 255 255 255 192 192 192 178 178 178 255 255 255 
255 251 240 255 255 204 255 251 240 255 251 240 255 251 240 204 204 204 
192 192 192 241 241 241 241 241 241 234 234 234 234 234 234 234 234 234 
234 234 234 255 204 255 204 236 255 204 236 255 234 234 234 255 204 255 
57 57 57 0 153 153 0 204 255 0 204 255 204 236 255 241 241 241 241 241 241 
241 241 241 248 248 248 241 241 241 248 248 248 248 248 248 255 251 240 
255 255 255 255 255 255 255 255 255 255 255 255 241 241 241 255 255 255 
51 204 255 0 204 255 0 204 255 0 204 255 51 153 204 255 251 240 160 160 164 
255 251 240 255 251 240 150 150 150 150 150 150 204 204 204 255 251 240 
255 251 240 255 255 204 255 251 240 231 231 214 128 128 128 248 248 248 
241 241 241 204 236 255 204 236 255 234 234 234 234 234 234 204 236 255 
204 236 255 204 236 255 204 236 255 204 236 255 241 241 241 153 204 204 
0 51 102 0 153 204 0 204 255 102 204 204 241 241 241 255 255 255 255 251 240 
255 251 240 255 255 255 255 255 255 248 248 248 255 251 240 255 255 255 
255 255 255 255 255 255 255 255 255 255 251 240 153 204 255 0 204 255 0 204 255 
51 204 255 51 153 153 227 227 227 231 231 214 178 178 178 255 251 240 204 204 204 
203 203 203 241 241 241 134 134 134 255 251 240 255 251 240 255 255 204 
255 255 204 255 251 240 203 203 203 204 204 204 204 236 255 204 236 255 
234 234 234 234 234 234 234 234 234 204 236 255 204 236 255 204 236 255 
204 236 255 234 234 234 227 227 227 241 241 241 102 102 153 0 153 204 0 204 255 
0 204 204 204 236 255 255 255 255 248 248 248 241 241 241 255 255 255 255 255 255 
248 248 248 255 255 255 255 255 255 255 255 255 255 255 255 255 255 255 
241 241 241 0 204 255 0 204 255 0 153 255 0 102 153 192 192 192 255 255 204 
150 150 150 241 241 241 255 251 240 192 192 192 215 215 215 241 241 241 
150 150 150 255 251 240 255 251 240 255 255 204 255 251 240 255 251 240 
234 234 234 160 160 164 241 241 241 204 236 255 204 236 255 234 234 234 
204 236 255 204 236 255 234 234 234 234 234 234 234 234 234 234 234 234 
234 234 234 234 234 234 241 241 241 51 153 153 0 204 204 0 204 204 102 153 204 
255 255 255 248 248 248 248 248 248 255 255 255 255 255 255 255 255 255 
241 241 241 255 255 255 255 255 255 255 255 255 255 255 255 102 204 255 
0 204 204 0 204 255 0 102 153 150 150 150 255 255 255 178 178 178 204 204 153 
255 255 255 255 251 240 160 160 164 234 234 234 234 234 234 160 160 164 
241 241 241 255 251 240 231 231 214 255 251 240 178 178 178 178 178 178 
178 178 178 241 241 241 204 236 255 204 236 255 234 234 234 204 236 255 
204 236 255 255 204 255 204 236 255 204 236 255 204 236 255 234 234 234 
234 234 234 241 241 241 204 236 255 51 51 102 0 153 204 0 153 204 204 255 255 
255 255 255 255 251 240 248 248 248 255 255 255 248 248 248 248 248 248 
255 255 255 255 255 255 255 255 255 255 255 255 0 204 255 0 204 255 51 153 204 
119 119 119 255 255 255 234 234 234 128 128 128 255 255 204 255 255 255 
255 251 240 153 153 153 234 234 234 234 234 234 192 192 192 221 221 221 
255 251 240 221 221 221 255 255 255 150 150 150 215 215 215 234 234 234 
204 236 255 204 236 255 234 234 234 234 234 234 204 236 255 204 236 255 
234 234 234 204 236 255 204 236 255 234 234 234 234 234 234 241 241 241 
241 241 241 153 204 204 102 153 153 0 153 204 0 204 204 102 255 255 248 248 248 
255 251 240 248 248 248 248 248 248 255 255 255 248 248 248 255 255 255 
255 255 255 255 255 255 255 255 255 0 204 255 0 204 204 102 102 153 255 255 255 
204 236 255 153 204 204 178 178 178 255 255 255 255 251 240 234 234 234 
153 153 153 241 241 241 234 234 234 215 215 215 192 192 192 215 215 215 
134 134 134 215 215 215 153 153 153 204 236 255 204 236 255 204 236 255 
204 236 255 234 234 234 234 234 234 234 234 234 234 234 234 204 236 255 
234 234 234 234 234 234 255 255 255 192 192 192 51 102 153 0 102 153 0 153 153 
0 153 204 51 204 255 0 204 204 153 255 255 255 255 255 255 255 255 255 255 255 
248 248 248 255 255 255 248 248 248 255 255 255 255 255 255 255 255 255 
255 255 255 204 236 255 0 204 204 51 153 153 248 248 248 248 248 248 134 134 134 
255 251 240 241 241 241 255 255 204 203 203 203 192 192 192 241 241 241 
204 236 255 241 241 241 192 192 192 178 178 178 241 241 241 192 192 192 
241 241 241 234 234 234 241 241 241 204 236 255 204 236 255 234 234 234 
234 234 234 234 234 234 234 234 234 204 236 255 241 241 241 241 241 241 
51 102 102 0 153 153 51 204 255 51 204 255 0 204 255 0 204 255 0 204 204 
102 204 204 241 241 241 255 255 255 255 255 255 255 255 255 255 255 255 
255 255 255 248 248 248 255 255 255 255 255 255 255 255 255 255 255 255 
248 248 248 102 255 204 0 204 204 51 153 153 66 66 66 204 204 204 255 251 240 
255 255 204 255 251 240 178 178 178 234 234 234 204 236 255 204 236 255 
204 236 255 241 241 241 234 234 234 234 234 234 234 234 234 204 236 255 
204 236 255 204 236 255 204 236 255 204 236 255 204 236 255 234 234 234 
234 234 234 234 234 234 204 255 255 204 204 204 28 28 28 0 102 102 0 153 153 
0 204 204 0 204 255 0 204 255 0 204 255 153 255 255 248 248 248 248 248 248 
248 248 248 255 251 240 255 255 255 248 248 248 255 255 255 241 241 241 
255 255 255 255 255 255 255 255 255 255 255 255 255 251 240 248 248 248 
0 204 255 0 204 255 0 128 128 204 255 255 241 241 241 239 214 198 178 178 178 
204 153 204 241 241 241 204 236 255 204 236 255 204 236 255 204 236 255 
204 236 255 234 234 234 241 241 241 204 236 255 204 236 255 234 234 234 
234 234 234 227 227 227 241 241 241 204 236 255 204 236 255 241 241 241 
134 134 134 51 51 0 51 51 0 102 51 0 51 51 0 66 66 66 51 102 102 51 204 204 
0 204 255 102 204 255 248 248 248 255 251 240 255 255 204 255 251 240 255 255 255 
248 248 248 255 255 255 248 248 248 255 255 255 255 255 255 255 255 255 
255 255 255 248 248 248 255 255 255 51 204 255 0 204 255 0 204 255 51 153 153 
0 51 51 8 8 8 4 4 4 153 204 153 221 221 221 241 241 241 241 241 241 234 234 234 
234 234 234 204 236 255 204 236 255 204 236 255 204 236 255 234 234 234 
227 227 227 227 227 227 227 227 227 241 241 241 248 248 248 192 192 192 
34 34 34 102 51 0 153 102 0 102 102 0 102 102 0 102 51 0 153 51 0 153 51 51 
0 51 51 51 204 153 51 204 204 102 204 255 241 241 241 255 255 255 248 248 248 
255 255 255 255 255 255 255 255 255 248 248 248 255 255 255 255 255 255 
255 255 255 255 255 255 255 255 255 248 248 248 0 204 255 0 204 255 51 153 153 
51 102 51 102 51 51 102 51 0 51 51 0 17 17 17 22 22 22 34 34 34 95 95 95 
160 160 164 234 234 234 248 248 248 241 241 241 204 236 255 241 241 241 
241 241 241 234 234 234 248 248 248 248 248 248 178 178 178 51 51 102 51 51 51 
85 85 85 51 102 102 51 102 102 0 128 128 0 128 128 0 128 128 51 102 153 
51 153 204 0 153 204 0 204 255 0 204 255 51 153 204 204 255 255 241 241 241 
248 248 248 248 248 248 255 255 255 255 255 255 255 251 240 255 255 255 
255 255 255 255 255 255 255 255 255 248 248 248 204 236 255 51 204 204 
51 102 102 102 51 51 153 51 0 153 51 0 153 51 0 153 51 0 102 51 51 102 51 51 
77 77 77 51 51 51 51 51 51 57 57 57 66 66 66 134 134 134 192 192 192 204 204 204 
204 204 204 192 192 192 51 153 153 0 102 102 0 153 153 0 204 255 0 204 255 
0 204 255 0 204 255 0 204 255 0 204 255 0 204 204 0 204 255 0 204 255 0 204 255 
0 204 255 51 204 255 102 204 204 153 204 255 241 241 241 255 255 255 248 248 248 
255 255 255 248 248 248 248 248 248 241 241 241 255 255 255 255 255 255 
255 255 255 255 255 255 248 248 248 153 255 204 0 204 204 0 153 153 66 66 66 
66 66 66 51 102 102 0 128 128 0 128 128 0 153 153 0 153 204 0 204 204 0 204 255 
0 204 255 0 204 255 0 204 204 0 153 204 0 153 153 0 153 204 0 153 204 0 153 204 
51 153 204 51 204 204 102 204 204 102 204 204 166 202 240 204 236 255 241 241 241 
241 241 241 241 241 241 241 241 241 204 255 255 204 255 255 241 241 241 
248 248 248 248 248 248 248 248 248 255 255 255 255 255 255 255 255 255 
255 255 255 248 248 248 248 248 248 248 248 248 255 255 255 255 255 255 
255 255 255 255 255 255 255 255 255 248 248 248 234 234 234 102 204 255 
51 204 255 51 204 204 51 204 204 51 204 255 51 204 255 51 204 255 102 204 255 
102 204 255 102 204 255 102 204 255 102 204 255 102 204 255 51 204 255 
51 204 255 102 204 255 153 204 255 153 204 255 204 236 255 204 255 255 
204 255 255 248 248 248 248 248 248 255 255 255 255 255 255 255 255 255 
248 248 248 248 248 248 248 248 248 248 248 248 255 255 255 248 248 248 
248 248 248 255 255 255 255 251 240 255 251 240 255 251 240 255 255 255 
255 255 255 248 248 248 255 255 255 248 248 248 248 248 248 255 255 255 
255 255 255 255 255 255 255 255 255 255 255 255 255 255 255 255 255 255 
255 255 255 255 255 255 255 255 255 255 255 255 255 255 255 255 255 255 
255 255 255 255 255 255 255 255 255 255 255 255 255 255 255 255 255 255 
255 255 255 255 255 255 255 255 255 255 255 255 255 255 255 255 255 255 
255 255 255 255 255 255 255 255 255 255 255 255 255 255 255 255 255 255 
255 255 255 255 255 255 255 255 255 255 255 255 255 255 255 255 255 255 
255 255 255 255 255 255 255 255 255 255 255 255 255 255 255 255 255 255 
255 255 255 255 255 255 255 255 255 255 255 255 255 255 255 255 255 255 
255 255 255 255 255 255 255 255 255 255 255 255 255 255 255 255 255 255 
255 255 255 255 255 255 255 255 255 255 255 255 255 255 255 255 255 255 
255 255 255 255 255 255 255 255 255 255 255 255 255 255 255 255 255 255 
255 255 255 255 255 255 255 255 255 255 255 255 255 255 255 255 255 255 
255 255 255 255 255 255 255 255 255 255 255 255 255 255 255 255 255 255 
255 255 255 255 255 255 255 255 255 255 255 255 255 255 255 255 255 255 
255 255 255 255 255 255 255 255 255 255 255 255 255 255 255 255 255 255 
255 255 255 255 255 255 255 255 255 255 255 255 255 255 255 255 255 255 
255 255 255 255 255 255 255 255 255 255 255 255 255 255 255 255 255 255 
255 255 255 255 255 255 255 255 255 255 255 255 255 255 255 255 255 255 
255 255 255 255 255 255 255 255 255 255 255 255 255 255 255 255 255 255 
255 255 255 255 255 255 255 255 255 255 255 255 255 255 255 255 255 255 
255 255 255 255 255 255 255 255 255 255 255 255 255 255 255 255 255 255 
255 255 255 255 255 255 255 255 255 255 255 255 255 255 255 255 255 255 
255 255 255 255 255 255 255 255 255 255 255 255 255 255 255 255 255 255 
255 255 255 255 255 255 255 255 255 255 255 255 255 255 255 255 255 255 
255 255 255 255 255 255 255 255 255 255 255 255 255 255 255 255 255 255 
255 255 255 255 255 255 255 255 255 255 255 255 255 255 255 255 255 255 
255 255 255 255 255 255 255 255 255 255 255 255 255 255 255 255 255 255 
255 255 255 255 255 255 255 255 255 255 255 255 255 255 255 255 255 255 
255 255 255 255 255 255 255 255 255 255 255 255 255 255 255 255 255 255 
255 255 255 255 255 255 255 255 255 255 255 255 255 255 255 255 255 255 
255 255 255 255 255 255 255 255 255 255 255 255 255 255 255 255 255 255 
255 255 255 255 255 255 255 255 255 255 255 255 255 255 255 255 255 255 
255 255 255 255 255 255 255 255 255 255 255 255 255 255 255 255 255 255 
255 255 255 255 255 255 255 255 255 255 255 255 255 255 255 255 255 255 
255 255 255 255 255 255 255 255 255 255 255 255 255 255 255 255 255 255 
255 255 255 255 255 255 255 255 255 255 255 255 255 255 255 255 255 255 
255 255 255 255 255 255 255 255 255 255 255 255 255 255 255 255 255 255 
255 255 255 255 255 255 255 255 255 255 255 255 255 255 255 255 255 255 
255 255 255 255 255 255 255 255 255 255 255 255 255 255 255 255 255 255 
255 255 255 255 255 255 255 255 255 255 255 255 255 255 255 255 255 255 
255 255 255 255 255 255 255 255 255 255 255 255 
